<?xml version="1.0" standalone="no"?>
<!DOCTYPE svg PUBLIC "-//W3C//DTD SVG 20010904//EN"
 "http://www.w3.org/TR/2001/REC-SVG-20010904/DTD/svg10.dtd">
<svg version="1.0" xmlns="http://www.w3.org/2000/svg"
 width="612.000000pt" height="408.000000pt" viewBox="0 0 612.000000 408.000000"
 preserveAspectRatio="xMidYMid meet">

<g transform="translate(0.000000,408.000000) scale(0.100000,-0.100000)"
fill="#000000" stroke="none">
<path d="M0 3841 c0 -265 -3 -255 67 -244 51 8 63 19 63 59 0 46 13 50 65 20
65 -39 86 -70 79 -118 -5 -27 -2 -44 8 -56 13 -14 88 -191 88 -207 0 -2 9 -19
19 -36 l19 -31 1 135 c0 195 25 324 86 447 39 80 56 146 49 190 -5 31 -3 45
11 60 18 20 16 20 -268 20 l-287 0 0 -239z"/>
<path d="M161 3614 c0 -11 3 -14 6 -6 3 7 2 16 -1 19 -3 4 -6 -2 -5 -13z"/>
<path d="M5036 3449 c-9 -18 -16 -36 -16 -42 0 -5 18 -45 40 -89 22 -44 40
-89 40 -99 0 -10 19 -31 46 -49 58 -41 74 -78 44 -102 -12 -10 -28 -18 -36
-18 -8 0 -14 -4 -14 -8 0 -16 63 -72 81 -72 13 0 19 -7 19 -21 0 -17 -3 -19
-14 -10 -21 18 -29 -14 -12 -47 8 -15 17 -44 20 -65 3 -20 8 -53 11 -72 3 -19
9 -34 13 -34 27 4 55 -6 102 -36 71 -46 93 -51 290 -75 91 -11 201 -25 245
-31 44 -6 85 -10 90 -9 28 6 35 -2 35 -45 0 -25 4 -45 9 -45 22 0 33 -60 23
-122 -11 -73 -11 -263 1 -275 5 -4 13 0 18 10 6 9 19 17 29 17 19 0 20 8 20
108 0 81 -4 117 -16 142 -15 29 -15 40 -4 89 9 37 14 167 17 389 l4 333 -31
12 c-36 14 -39 37 -10 78 15 21 21 46 23 98 3 88 -9 103 -58 77 -20 -11 -45
-16 -61 -13 -17 3 -39 -2 -58 -14 -41 -25 -48 -24 -86 8 -30 25 -35 26 -76 15
-54 -15 -91 -15 -99 -2 -3 5 -35 8 -71 6 -54 -2 -67 -6 -80 -25 -17 -23 -65
-27 -91 -8 -8 6 -18 5 -26 -1 -35 -30 -145 1 -184 52 -22 27 -47 34 -58 16 -4
-6 -14 -9 -23 -6 -71 20 -79 18 -96 -15z m249 -230 c9 -14 6 -16 -30 -23 -17
-3 -25 -4 -18 0 7 3 9 12 6 20 -6 17 32 20 42 3z"/>
<path d="M424 3065 c-15 -38 47 -220 88 -260 16 -16 1 54 -27 123 -13 33 -27
79 -31 101 -7 45 -21 61 -30 36z"/>
<path d="M5207 2826 c4 -28 3 -37 -5 -32 -7 4 -12 13 -12 20 0 8 -6 19 -14 25
-11 9 -16 6 -24 -16 -5 -16 -6 -38 -1 -51 8 -22 47 -44 62 -35 10 6 8 95 -3
113 -6 10 -7 3 -3 -24z"/>
<path d="M3894 2671 c-45 -10 -95 -26 -112 -37 -47 -29 -232 -156 -232 -159 0
-1 18 -14 41 -29 38 -25 42 -26 62 -12 31 22 314 233 326 243 13 10 -13 8 -85
-6z"/>
<path d="M1590 2660 c8 -5 20 -10 25 -10 6 0 3 5 -5 10 -8 5 -19 10 -25 10 -5
0 -3 -5 5 -10z"/>
<path d="M3843 2547 c-89 -67 -161 -123 -160 -124 4 -4 173 80 200 99 15 11
44 24 65 30 44 12 102 53 102 73 0 14 -27 45 -38 45 -4 -1 -80 -56 -169 -123z"/>
<path d="M3550 2628 c-11 -24 -24 -34 -47 -39 -19 -4 -33 -2 -33 3 0 5 -4 6
-10 3 -5 -3 -10 -24 -10 -46 0 -46 17 -51 65 -20 47 31 131 108 124 115 -4 4
-22 9 -40 12 -31 5 -35 2 -49 -28z"/>
<path d="M1871 2478 l-1 -166 68 -39 c37 -22 126 -74 199 -116 l132 -77 41 22
c22 12 39 27 36 34 -2 6 0 16 6 22 6 6 6 12 -3 17 -7 5 -10 4 -6 -2 4 -6 0
-13 -8 -17 -8 -3 -15 -1 -15 3 0 5 -12 5 -27 -1 -25 -9 -40 -3 -138 57 -60 36
-136 81 -167 98 l-57 31 -3 131 c-2 77 -7 129 -13 127 -5 -2 -12 5 -16 15 -7
17 -8 17 -9 -2 -2 -17 -3 -16 -10 5 -5 15 -8 -43 -9 -142z"/>
<path d="M2033 2612 c-38 -32 -56 -98 -51 -183 l3 -54 144 -82 c159 -90 171
-91 171 -15 0 49 -11 58 -79 65 -50 5 -76 21 -65 38 2 4 -6 9 -18 11 -22 3
-23 7 -26 128 -2 90 -6 121 -13 110 -8 -11 -12 -12 -16 -2 -7 17 -14 15 -50
-16z"/>
<path d="M1520 2570 c0 -43 3 -50 20 -50 18 0 19 -5 13 -97 -4 -64 -11 -104
-20 -115 -25 -28 -8 -72 34 -92 51 -24 123 -31 169 -16 49 16 91 15 113 -3 13
-12 74 -37 88 -37 2 0 1 5 -2 10 -8 13 1 13 28 -1 45 -21 -15 20 -90 64 l-73
41 0 172 0 172 -42 -10 c-70 -15 -157 -61 -158 -81 0 -10 -6 -25 -14 -32 -22
-22 -32 48 -12 77 19 26 5 48 -30 48 -22 0 -24 -4 -24 -50z"/>
<path d="M2141 2508 l-1 -88 70 0 c39 0 70 4 70 10 0 16 -37 30 -79 30 -23 0
-41 5 -41 10 0 6 26 10 59 10 33 0 63 5 66 10 4 6 -18 10 -59 10 -52 0 -66 3
-66 15 0 10 11 15 33 16 l32 2 -35 6 c-25 4 -36 12 -41 31 -4 15 -7 -11 -8
-62z"/>
<path d="M3256 2569 c-22 -17 -25 -24 -14 -31 9 -6 6 -7 -9 -3 -13 3 -28 3
-35 -2 -7 -4 -20 -8 -28 -10 -17 -2 -40 -31 -40 -50 0 -7 -4 -13 -9 -13 -5 0
-11 -9 -14 -20 -7 -26 -7 -26 50 10 52 34 130 60 175 60 20 0 27 4 22 12 -4 6
-3 8 3 5 22 -14 73 -17 72 -5 -2 21 -17 64 -18 51 -1 -7 -5 -13 -10 -13 -5 0
-11 6 -14 13 -2 6 -2 1 0 -13 3 -22 2 -23 -7 -7 -6 9 -15 15 -21 12 -5 -4 -9
1 -9 9 0 24 -62 20 -94 -5z"/>
<path d="M1952 2460 l-2 -105 161 -94 c150 -87 162 -92 178 -77 14 15 14 17 0
11 -9 -3 -32 3 -50 13 -19 11 -88 51 -154 89 l-120 69 -6 99 -5 100 -2 -105z"/>
<path d="M3281 2434 c-57 -15 -144 -72 -162 -106 -13 -24 -5 -48 15 -48 17 0
216 130 236 154 11 14 9 16 -11 15 -13 0 -48 -7 -78 -15z"/>
<path d="M3405 2346 c-39 -41 -71 -77 -73 -82 -1 -5 12 -10 30 -12 18 -2 38
-12 46 -23 17 -25 47 -24 66 2 13 19 48 24 47 7 -1 -5 -1 -26 -1 -48 0 -22 -4
-40 -10 -40 -5 0 -10 9 -10 19 0 10 -6 21 -12 24 -15 5 -247 -2 -266 -8 -9 -3
-12 -27 -10 -87 l3 -83 70 -3 c39 -2 74 -7 80 -13 6 -6 -21 -9 -80 -7 l-90 3
-3 70 c-1 39 -4 80 -7 92 l-5 22 -48 -26 c-94 -52 -100 -70 -53 -168 33 -71
84 -119 115 -111 12 3 58 6 104 6 80 0 83 1 77 21 -4 13 -1 27 10 38 14 17 15
19 0 25 -9 3 -13 11 -9 17 4 7 8 24 9 38 1 14 3 33 3 41 1 8 13 28 27 43 22
23 34 27 80 27 51 0 54 1 60 29 4 18 0 42 -11 65 -18 36 -18 37 9 91 l26 54
-33 26 c-18 14 -41 25 -52 25 -11 0 -50 -32 -89 -74z m63 -78 c-2 -28 -8 -34
-30 -36 -26 -3 -28 -1 -28 32 0 33 2 36 31 36 28 0 30 -2 27 -32z m-188 -113
c0 -8 -9 -15 -20 -15 -11 0 -20 7 -20 15 0 8 9 15 20 15 11 0 20 -7 20 -15z
m60 0 c0 -8 -7 -15 -15 -15 -8 0 -15 7 -15 15 0 8 7 15 15 15 8 0 15 -7 15
-15z m60 0 c0 -8 -7 -15 -15 -15 -8 0 -15 7 -15 15 0 8 7 15 15 15 8 0 15 -7
15 -15z m70 6 c0 -5 -7 -12 -16 -15 -22 -9 -24 -8 -24 9 0 8 9 15 20 15 11 0
20 -4 20 -9z m-190 -55 c0 -15 -24 -28 -34 -19 -13 14 -5 33 14 33 11 0 20 -6
20 -14z m58 -3 c-4 -22 -22 -20 -26 1 -2 10 3 16 13 16 10 0 15 -7 13 -17z
m52 -3 c-6 -11 -13 -20 -15 -20 -3 0 -5 9 -5 20 0 11 7 20 15 20 13 0 14 -4 5
-20z m-110 -44 c0 -15 -24 -28 -34 -19 -13 14 -5 33 14 33 11 0 20 -6 20 -14z
m60 -6 c0 -11 -7 -20 -15 -20 -8 0 -15 9 -15 20 0 11 7 20 15 20 8 0 15 -9 15
-20z"/>
<path d="M2771 2384 c-12 -15 -21 -34 -22 -43 -2 -41 -11 -76 -22 -83 -11 -7
-12 -69 -1 -140 5 -34 9 -38 35 -38 19 0 47 14 78 38 44 35 47 40 31 50 -10 6
-31 28 -46 48 -26 34 -29 44 -28 115 1 44 0 79 -2 79 -1 0 -12 -12 -23 -26z"/>
<path d="M2180 2380 c0 -5 21 -10 46 -10 27 0 43 4 39 10 -3 6 -24 10 -46 10
-21 0 -39 -4 -39 -10z"/>
<path d="M5868 2358 c9 -9 15 -9 24 0 9 9 7 12 -12 12 -19 0 -21 -3 -12 -12z"/>
<path d="M5862 2332 c-12 -8 -7 -42 7 -42 4 0 14 9 23 19 14 17 15 20 1 25
-18 7 -15 7 -31 -2z"/>
<path d="M2891 2306 c-9 -10 -9 -20 -2 -33 6 -10 17 -35 26 -56 25 -64 69 -42
90 45 6 24 3 29 -30 42 -46 20 -69 20 -84 2z"/>
<path d="M0 2060 l0 -230 100 0 c99 0 101 0 110 26 6 14 10 57 10 95 0 65 -2
73 -30 101 -16 16 -30 34 -30 39 0 5 -4 9 -10 9 -9 0 -24 29 -53 101 -13 32
-71 89 -90 89 -4 0 -7 -103 -7 -230z"/>
<path d="M3301 2244 c0 -11 3 -14 6 -6 3 7 2 16 -1 19 -3 4 -6 -2 -5 -13z"/>
<path d="M5835 2190 c-3 -5 -12 -30 -20 -55 -7 -26 -28 -68 -47 -95 -26 -38
-43 -51 -78 -62 -58 -18 -67 -50 -19 -67 52 -18 196 -26 213 -12 14 12 9 51
-10 82 -4 7 -6 41 -5 76 2 50 -1 64 -13 69 -22 9 -20 34 3 34 14 0 18 5 14 20
-6 21 -28 27 -38 10z"/>
<path d="M2035 2121 c10 -12 15 -21 12 -21 -8 0 47 -53 69 -66 25 -14 120 -37
135 -32 7 2 -5 15 -27 28 -86 52 -160 93 -184 102 -24 9 -24 9 -5 -11z"/>
<path d="M2403 2076 c-45 -24 -93 -53 -107 -64 l-25 -19 97 -28 c53 -15 118
-34 144 -42 31 -9 65 -12 105 -8 49 6 61 4 75 -11 9 -11 17 -23 17 -28 0 -15
149 -55 201 -56 26 0 62 9 85 20 22 11 47 20 57 20 24 0 23 9 -5 43 -19 24
-29 28 -72 28 -27 1 -83 -5 -123 -12 -72 -13 -76 -12 -155 16 -94 32 -117 48
-117 81 0 18 -12 29 -55 50 -43 22 -53 30 -44 41 15 18 15 18 -78 -31z"/>
<path d="M3432 2087 c-24 -25 -29 -76 -10 -95 20 -20 48 15 48 61 0 34 2 39
20 34 13 -3 20 0 20 9 0 23 -54 17 -78 -9z"/>
<path d="M760 1970 c0 -5 5 -10 11 -10 5 0 7 5 4 10 -3 6 -8 10 -11 10 -2 0
-4 -4 -4 -10z"/>
<path d="M6100 1970 c-8 -5 -26 -10 -40 -10 -32 -1 -57 -20 -70 -55 -8 -22 -7
-35 8 -64 16 -30 26 -37 65 -45 26 -5 49 -7 52 -4 3 3 4 46 3 96 -3 78 -5 90
-18 82z"/>
<path d="M730 1960 c0 -5 5 -10 11 -10 5 0 7 5 4 10 -3 6 -8 10 -11 10 -2 0
-4 -4 -4 -10z"/>
<path d="M1581 1922 c35 -23 51 -42 72 -89 23 -52 32 -62 76 -82 32 -14 86
-57 152 -122 56 -54 106 -99 113 -99 6 1 21 6 33 13 22 12 20 16 -80 113 -171
168 -278 263 -295 262 -9 0 -37 7 -61 16 -60 22 -62 20 -10 -12z"/>
<path d="M758 1908 c-22 -8 -28 -16 -28 -39 0 -22 5 -29 19 -29 11 0 27 -3 37
-7 11 -4 15 -3 11 4 -4 7 0 10 10 9 19 -3 33 10 33 32 0 7 -5 10 -10 7 -6 -4
-18 2 -28 13 -14 16 -22 18 -44 10z"/>
<path d="M1050 1904 c-105 -18 -150 -21 -173 -10 -16 7 -17 4 -15 -28 2 -38
13 -46 63 -45 17 1 53 -9 80 -21 28 -12 92 -37 144 -56 99 -35 141 -58 141
-74 0 -13 -63 -13 -76 -1 -12 12 -169 56 -254 71 -36 6 -75 15 -87 20 -18 7
-31 2 -70 -31 -99 -82 -214 -80 -300 6 -40 40 -45 41 -142 19 -79 -18 -101
-14 -101 17 0 23 -6 23 -197 3 l-63 -6 0 -279 0 -279 36 0 c20 0 61 -7 91 -16
42 -12 76 -14 146 -9 134 9 191 8 297 -6 96 -13 306 -18 370 -9 19 2 52 19 74
37 49 41 97 63 154 72 l46 6 93 280 c90 275 106 338 81 334 -7 -1 -38 0 -68 4
-120 14 -189 14 -270 1z"/>
<path d="M1731 1894 c23 -28 321 -319 329 -322 9 -3 61 26 71 41 4 5 -17 30
-46 56 -225 198 -247 215 -296 227 -57 13 -70 12 -58 -2z"/>
<path d="M675 1880 c-7 -21 0 -40 16 -40 12 0 12 47 0 55 -5 3 -12 -4 -16 -15z"/>
<path d="M1396 1788 c-39 -114 -166 -502 -166 -510 0 -3 12 -9 28 -13 41 -10
89 -51 119 -102 35 -60 38 -148 6 -209 -15 -28 -19 -44 -12 -51 7 -7 7 -13 1
-17 -6 -3 -13 -2 -17 3 -3 6 -25 -3 -49 -21 -36 -25 -56 -31 -113 -35 -60 -3
-74 -1 -118 24 -62 35 -106 102 -113 173 -4 41 -7 48 -18 39 -8 -6 -14 -24
-14 -39 l0 -28 -212 1 c-267 2 -485 -4 -518 -15 l-25 -8 22 19 23 19 -43 -5
c-23 -3 -50 -10 -59 -14 -23 -12 -68 -11 -68 1 0 6 -11 10 -25 10 l-26 0 2
-90 1 -91 35 21 c33 19 103 28 103 13 0 -5 27 -8 60 -8 41 0 64 -5 69 -14 7
-11 24 -13 70 -8 33 3 61 1 63 -4 2 -5 39 -12 83 -14 227 -14 379 -37 406 -60
8 -8 21 -15 27 -15 7 0 12 -5 12 -11 0 -6 7 -9 15 -5 8 3 15 1 15 -4 0 -5 10
-12 23 -15 12 -4 31 -15 42 -24 20 -16 61 -41 68 -41 2 0 4 7 4 15 0 8 -8 15
-18 15 -10 0 -23 9 -29 20 -6 11 -16 20 -22 20 -16 0 -78 43 -78 54 0 4 12 5
28 1 15 -4 41 -9 57 -11 61 -8 85 -16 85 -29 0 -15 99 -75 123 -75 12 0 10 6
-9 25 -14 14 -31 25 -39 25 -8 0 -17 4 -20 10 -8 13 45 3 115 -22 30 -11 74
-25 97 -32 63 -18 60 -23 -7 -12 -39 6 -64 6 -70 0 -9 -9 145 -56 233 -71 29
-6 38 11 11 21 -9 4 -14 9 -11 12 3 3 16 0 29 -7 12 -7 30 -14 38 -15 25 -4
87 -29 101 -41 14 -12 43 -23 182 -72 43 -15 82 -33 87 -40 15 -25 179 -50
295 -45 67 2 69 2 47 -13 -13 -9 -76 -40 -139 -70 -64 -29 -119 -56 -122 -58
-13 -14 193 10 259 30 25 7 66 16 91 20 31 4 57 16 79 35 37 33 57 36 107 18
41 -15 109 1 333 80 85 29 232 80 325 112 94 31 186 64 205 73 l35 15 -28 11
c-16 6 -36 11 -45 12 -9 0 15 15 53 33 39 18 90 51 115 73 l44 40 -15 86 c-8
48 -12 92 -9 98 5 7 42 7 126 -1 196 -18 264 -23 264 -17 0 8 -182 114 -235
137 -36 16 -45 24 -45 45 0 14 -6 25 -14 25 -7 0 -103 9 -212 20 -251 25 -375
36 -589 55 -93 8 -184 17 -201 20 -31 5 -31 5 -37 -42 -6 -58 -1 -73 28 -73
35 0 85 -12 85 -20 0 -4 -26 -12 -57 -16 -53 -8 -58 -11 -58 -34 0 -20 6 -26
26 -28 33 -4 201 25 208 36 3 4 31 7 61 7 30 0 170 8 310 19 140 10 264 19
275 20 11 0 21 -3 22 -9 1 -5 -13 -11 -30 -13 -18 -1 -133 -20 -257 -42 -124
-21 -333 -58 -465 -80 l-240 -41 -147 -84 c-81 -47 -153 -85 -159 -85 -7 0
-63 29 -125 66 -62 36 -119 64 -126 63 -7 -1 -40 -1 -73 1 -44 1 -55 4 -40 10
11 5 33 9 49 9 18 1 26 5 20 10 -5 5 -45 2 -96 -7 -62 -11 -96 -12 -120 -6
-31 10 -27 11 60 27 51 10 98 15 105 11 7 -3 1 4 -13 15 -14 11 -28 21 -32 21
-5 0 -8 7 -8 15 0 11 -11 15 -37 15 l-36 0 23 20 c13 11 29 20 37 20 10 0 13
37 13 187 l0 187 33 35 c17 18 27 31 20 27 -6 -3 -13 -3 -15 2 -1 4 -23 23
-48 42 -25 19 -48 39 -51 44 -4 4 -11 6 -16 3 -6 -4 -8 4 -6 17 4 18 -5 35
-31 63 -41 44 -48 29 -16 -39 29 -64 70 -173 70 -187 0 -8 -6 -11 -16 -7 -9 3
-19 6 -22 6 -4 0 -8 15 -9 32 -2 18 -7 34 -13 36 -5 2 -10 12 -10 22 0 10 -6
25 -13 32 -8 7 -26 34 -42 58 -15 25 -31 47 -35 50 -4 3 -14 35 -24 73 -9 37
-24 75 -34 85 -27 26 -89 52 -126 52 l-34 0 -36 -102z m52 -230 c30 -30 -8
-40 -41 -10 -18 15 -20 15 -14 0 8 -23 -25 -52 -41 -36 -22 22 -14 46 16 51
52 8 68 7 80 -5z m157 -318 c22 -18 19 -50 -4 -50 -11 0 -23 -4 -26 -10 -3 -5
-33 -10 -66 -10 l-59 0 0 46 0 47 70 -5 c38 -3 77 -11 85 -18z m1275 -130 c8
-5 11 -10 5 -10 -5 0 -36 -4 -67 -9 -32 -6 -69 -6 -85 -1 l-28 8 35 1 c19 1
42 6 50 11 8 5 29 10 45 10 17 0 37 -5 45 -10z m316 -521 c9 -15 -11 -33 -30
-26 -9 4 -13 13 -10 22 7 17 30 20 40 4z m-261 -109 c-3 -5 -14 -10 -23 -9
-14 0 -13 2 3 9 27 11 27 11 20 0z"/>
<path d="M507 1773 c11 -31 26 -45 68 -64 48 -22 101 -24 146 -5 35 15 90 65
73 67 -5 1 -68 3 -141 4 -72 1 -136 6 -142 9 -7 5 -8 1 -4 -11z"/>
<path d="M3320 1714 c-25 -8 -54 -18 -65 -23 -11 -6 -44 -13 -72 -16 -29 -4
-53 -11 -53 -16 0 -5 -9 -9 -20 -9 -26 0 -26 20 0 27 13 3 20 12 18 22 -4 20
-92 28 -114 10 -21 -17 -14 -54 11 -55 11 -1 25 -2 31 -3 6 -1 9 -13 6 -29 -2
-16 2 -33 10 -39 24 -19 156 -43 248 -44 109 -2 125 7 116 65 -4 23 -8 57 -10
76 -2 19 -4 38 -5 43 -2 11 -50 7 -101 -9z"/>
<path d="M5796 1679 c3 -5 14 -9 25 -9 10 0 19 4 19 9 0 5 -11 9 -25 9 -13 0
-22 -4 -19 -9z"/>
<path d="M2134 1533 c-92 -48 -98 -53 -81 -70 17 -18 43 -12 82 19 21 16 24
23 13 30 -9 7 -5 8 13 4 32 -7 54 13 34 31 -10 9 -23 6 -61 -14z"/>
<path d="M6072 1373 c-52 -111 -102 -242 -102 -267 0 -34 16 -6 55 94 33 85
82 188 72 150 -23 -85 -115 -320 -124 -320 -7 0 -13 6 -13 13 0 6 -9 -2 -19
-19 -31 -51 -87 -51 -516 -9 -27 3 -124 12 -215 20 -91 8 -210 19 -265 25
-151 14 -175 13 -175 -8 0 -10 5 -23 12 -30 8 -8 9 -12 1 -12 -6 0 -19 8 -28
17 -14 13 -22 15 -44 6 -14 -6 -42 -17 -61 -23 -19 -7 -48 -18 -65 -26 -16 -7
-93 -36 -170 -64 -177 -63 -265 -68 -265 -15 0 26 -15 41 -24 26 -10 -16 5
-39 49 -75 33 -27 61 -39 117 -51 135 -28 125 -20 84 -65 -22 -25 -36 -50 -36
-66 l0 -26 38 27 c20 16 51 40 67 55 29 27 125 92 197 135 18 11 42 20 53 21
11 1 44 9 73 19 63 21 95 11 142 -42 17 -18 30 -29 30 -23 0 22 -89 99 -129
111 -35 11 -40 15 -28 26 20 20 92 -13 159 -75 l55 -49 109 -12 c306 -35 492
-52 616 -58 126 -6 139 -4 171 15 32 18 37 19 48 5 19 -22 103 -9 146 24 l34
26 -2 304 c0 166 -2 303 -3 303 -2 0 -21 -39 -44 -87z m-1403 -437 c-2 -2 -33
-18 -69 -36 -68 -34 -64 -17 5 19 34 18 78 30 64 17z"/>
<path d="M2095 1440 c-3 -5 1 -10 9 -10 8 0 18 5 21 10 3 6 -1 10 -9 10 -8 0
-18 -4 -21 -10z"/>
<path d="M2229 1436 c16 -19 14 -19 -28 -5 -24 8 -39 8 -61 -1 -17 -7 -30 -16
-30 -20 0 -4 -20 -17 -45 -29 l-45 -21 0 -90 c0 -60 4 -90 11 -90 8 0 7 -5 -2
-16 -11 -14 -11 -18 3 -28 15 -11 15 -13 0 -24 -14 -11 -11 -12 19 -9 25 2 36
-2 36 -11 0 -9 -9 -12 -26 -9 l-25 5 25 -19 c39 -31 81 -52 119 -58 22 -4 35
-12 35 -21 0 -17 1 -17 75 -7 30 5 66 15 80 23 24 14 22 14 -26 9 -29 -4 -54
-2 -58 3 -6 10 52 23 119 26 37 2 85 20 85 32 0 3 -4 3 -8 0 -5 -3 -51 -6
-103 -7 -52 -1 -107 -6 -123 -10 -17 -5 -32 -5 -36 0 -3 5 -19 11 -35 13 l-30
3 -3 122 -3 122 -35 22 c-33 20 -34 22 -18 40 16 18 40 27 31 12 -3 -5 1 -14
9 -21 12 -11 15 -10 20 2 5 12 22 16 75 16 55 0 69 3 69 15 0 8 -2 15 -4 15
-2 0 -21 7 -42 16 -35 15 -37 15 -25 0z m-144 -286 c3 -6 -1 -7 -9 -4 -18 7
-21 14 -7 14 6 0 13 -4 16 -10z"/>
<path d="M1951 1431 c-10 -7 -14 -33 -15 -96 -1 -80 1 -88 22 -102 l22 -15 0
87 c0 70 3 90 17 100 32 23 -11 48 -46 26z"/>
<path d="M2369 1397 c12 -15 11 -17 -15 -18 -29 -1 -29 -1 -4 -8 14 -4 26 -4
28 0 2 4 16 3 33 -1 17 -5 29 -5 29 1 0 5 -7 9 -15 9 -9 0 -28 8 -43 17 -26
17 -26 17 -13 0z"/>
<path d="M2004 1377 c-3 -8 -4 -52 -2 -98 l3 -84 5 98 c5 96 4 109 -6 84z"/>
<path d="M2175 1372 c-6 -4 -10 -65 -10 -147 l0 -140 100 -2 c64 -1 92 1 79 7
-17 6 -21 17 -21 53 -1 44 -22 105 -23 65 0 -9 -6 -19 -12 -21 -10 -4 -10 -6
0 -6 6 -1 12 -7 12 -15 0 -16 -19 -25 -37 -19 -7 3 -13 11 -13 19 0 8 6 14 13
14 9 0 9 3 -1 9 -8 5 -12 17 -10 27 4 22 -18 49 -49 58 -19 6 -23 15 -23 47 0
37 2 39 33 41 17 0 38 1 44 1 7 -1 10 3 7 8 -6 11 -75 12 -89 1z m53 -159 c-2
-10 -12 -18 -23 -18 -11 0 -21 8 -23 18 -3 13 3 17 23 17 20 0 26 -4 23 -17z
m2 -46 c0 -20 -9 -25 -31 -20 -28 8 -24 33 6 33 14 0 25 -6 25 -13z m-10 -52
c0 -8 -9 -15 -20 -15 -11 0 -20 7 -20 15 0 8 9 15 20 15 11 0 20 -7 20 -15z
m78 -2 c2 -8 -6 -13 -22 -13 -17 0 -26 5 -26 16 0 19 41 16 48 -3z"/>
<path d="M2191 1333 c0 -11 3 -13 6 -5 2 6 15 12 29 12 18 0 22 -4 18 -17 -5
-16 -4 -16 8 -2 7 9 20 18 28 22 8 3 -9 6 -37 6 -44 1 -53 -2 -52 -16z"/>
<path d="M2450 1260 c0 -12 12 -26 30 -35 l30 -16 0 36 c0 32 -2 35 -30 35
-23 0 -30 -4 -30 -20z"/>
<path d="M2533 1240 c0 -25 2 -35 4 -22 2 12 2 32 0 45 -2 12 -4 2 -4 -23z"/>
<path d="M2559 1272 c-8 -68 -6 -78 22 -85 17 -5 19 0 19 42 0 40 -3 47 -20
48 -11 1 -20 -1 -21 -5z"/>
<path d="M4555 1216 c-90 -35 -93 -36 -99 -53 -10 -26 0 -26 66 0 102 41 116
43 150 17 26 -19 30 -20 25 -6 -4 10 -7 24 -7 31 0 11 -50 36 -69 34 -3 0 -33
-10 -66 -23z"/>
<path d="M1265 1188 c4 -12 16 -34 26 -47 45 -57 32 -152 -27 -197 -89 -69
-216 -4 -216 110 0 45 -17 57 -19 13 -1 -20 -2 -20 -8 3 -7 23 -8 24 -14 5 -9
-27 7 -93 31 -124 35 -48 80 -71 140 -71 113 0 191 84 179 192 -7 53 -40 108
-78 129 -19 10 -20 9 -14 -13z m57 -52 c10 -19 8 -18 -16 3 -14 14 -26 29 -26
34 0 13 29 -12 42 -37z m15 -118 c-2 -13 -4 -5 -4 17 -1 22 1 32 4 23 2 -10 2
-28 0 -40z m-267 -73 c0 -5 -9 1 -20 15 -11 14 -20 30 -20 35 0 6 9 -1 20 -15
11 -14 20 -29 20 -35z m220 -10 c-13 -14 -27 -25 -32 -25 -9 0 42 49 51 50 3
0 -6 -11 -19 -25z m-108 -36 c19 -1 25 -3 15 -6 -26 -7 -87 6 -87 18 0 6 7 6
19 -1 11 -5 35 -11 53 -11z"/>
<path d="M1948 1193 c7 -3 16 -2 19 1 4 3 -2 6 -13 5 -11 0 -14 -3 -6 -6z"/>
<path d="M1936 1172 c-3 -3 -6 -12 -6 -19 0 -17 42 -14 47 3 4 12 -32 26 -41
16z"/>
<path d="M2473 1173 c9 -2 23 -2 30 0 6 3 -1 5 -18 5 -16 0 -22 -2 -12 -5z"/>
<path d="M2366 1155 c-3 -9 0 -15 9 -15 16 0 20 16 6 24 -5 3 -11 -1 -15 -9z"/>
<path d="M2400 1150 c0 -11 5 -20 11 -20 8 0 7 -6 -2 -17 -10 -12 -11 -15 -1
-9 7 4 33 8 57 8 55 0 62 24 10 34 -19 3 -32 10 -29 15 3 5 -6 9 -20 9 -19 0
-26 -5 -26 -20z"/>
<path d="M3841 1141 c20 -10 56 -32 80 -49 24 -17 72 -47 106 -67 l63 -37 40
23 c22 13 40 26 40 31 0 17 -29 19 -56 5 -25 -13 -32 -12 -78 10 -28 13 -58
28 -66 33 -48 30 -132 70 -147 70 -11 -1 -3 -8 18 -19z"/>
<path d="M2567 1143 c-13 -3 -17 -12 -15 -34 2 -16 7 -29 11 -29 4 0 14 0 22
0 21 0 19 38 -2 43 -17 4 -17 5 0 6 9 0 17 6 17 11 0 10 -3 11 -33 3z"/>
<path d="M1199 1135 c-3 -2 -28 -5 -57 -6 -42 -2 -55 -7 -67 -25 -32 -49 -8
-130 47 -160 62 -35 150 0 177 69 12 33 12 42 -3 82 -17 42 -20 45 -55 45 -21
0 -40 -2 -42 -5z m61 -95 c0 -33 -4 -60 -9 -60 -12 0 -17 34 -12 83 5 59 21
43 21 -23z m-90 -10 c0 -27 -4 -50 -10 -50 -5 0 -10 23 -10 50 0 28 5 50 10
50 6 0 10 -22 10 -50z m48 -13 c2 -28 -1 -37 -12 -37 -12 0 -16 11 -16 41 0
52 24 48 28 -4z m-88 -17 c0 -11 -7 -20 -15 -20 -15 0 -21 21 -8 33 12 13 23
7 23 -13z"/>
<path d="M2532 1120 c0 -14 2 -19 5 -12 2 6 2 18 0 25 -3 6 -5 1 -5 -13z"/>
<path d="M4048 1116 c41 -24 79 -26 65 -3 -4 7 0 8 13 3 12 -4 15 -4 9 2 -5 5
-37 12 -70 16 l-60 6 43 -24z"/>
<path d="M1944 1115 c3 -8 1 -15 -4 -15 -19 0 -10 -31 13 -40 17 -7 18 -9 5
-9 -28 -1 -21 -17 18 -40 69 -41 107 -20 44 24 -23 16 -40 36 -40 47 0 19 -22
48 -35 48 -4 0 -5 -7 -1 -15z"/>
<path d="M4255 1110 c-8 -13 5 -13 25 0 13 8 13 10 -2 10 -9 0 -20 -4 -23 -10z"/>
<path d="M2525 1080 c-3 -5 -1 -10 4 -10 6 0 11 5 11 10 0 6 -2 10 -4 10 -3 0
-8 -4 -11 -10z"/>
<path d="M3037 1084 c-5 -6 -329 -63 -359 -64 -12 0 -10 -30 2 -30 5 0 24 7
42 15 18 8 121 28 228 45 243 39 238 37 159 39 -36 0 -69 -2 -72 -5z"/>
<path d="M2000 1073 c0 -5 17 -17 38 -28 52 -27 60 -29 37 -10 -29 24 -75 47
-75 38z"/>
<path d="M2560 1050 c-19 -3 -44 -12 -55 -18 -17 -11 -11 -12 35 -6 60 7 64 8
59 21 -2 5 -20 6 -39 3z"/>
<path d="M4078 1053 c7 -3 16 -2 19 1 4 3 -2 6 -13 5 -11 0 -14 -3 -6 -6z"/>
<path d="M2435 1025 c-52 -32 -30 -32 26 0 24 14 37 25 29 25 -8 0 -33 -11
-55 -25z"/>
<path d="M2437 980 c-21 -4 -43 -12 -50 -19 -9 -9 -2 -10 33 -5 50 8 111 34
75 32 -11 0 -37 -4 -58 -8z"/>
<path d="M2295 944 c-11 -8 -31 -13 -45 -10 -23 5 -24 5 -4 -5 17 -9 30 -6 60
10 22 11 32 20 24 20 -8 0 -24 -6 -35 -15z"/>
<path d="M2152 931 c-22 -6 -18 -10 39 -44 35 -20 70 -37 77 -37 16 0 99 48
109 62 3 6 2 9 -3 6 -5 -4 -32 -9 -61 -13 -41 -5 -60 -2 -92 14 -22 12 -42 21
-43 20 -2 -1 -14 -4 -26 -8z"/>
<path d="M4950 823 c0 -6 7 -27 15 -46 8 -20 15 -54 15 -76 0 -33 -7 -47 -37
-78 -40 -40 -167 -106 -322 -168 -120 -47 -178 -46 -242 5 -38 30 -40 31 -27
7 22 -41 96 -97 131 -98 69 -2 103 3 114 18 13 17 47 10 41 -9 -3 -7 -18 -16
-35 -20 -37 -10 -83 -54 -83 -80 0 -21 6 -24 73 -32 37 -4 47 -3 47 9 0 8 3
15 8 15 4 0 16 16 27 36 10 19 36 50 56 69 41 36 128 85 153 85 20 0 36 -31
36 -69 0 -20 6 -32 18 -35 20 -7 34 -31 50 -81 8 -27 13 -30 48 -30 31 0 39 4
42 20 2 11 17 31 34 45 25 22 28 29 20 50 -6 14 -29 79 -53 145 -23 66 -46
125 -50 131 -5 5 -22 50 -40 100 -31 89 -39 107 -39 87z"/>
<path d="M4890 700 c6 -11 13 -20 15 -20 3 0 5 9 5 20 0 11 -7 20 -15 20 -13
0 -14 -4 -5 -20z"/>
<path d="M4510 690 c-8 -5 -10 -10 -5 -10 6 0 17 5 25 10 8 5 11 10 5 10 -5 0
-17 -5 -25 -10z"/>
<path d="M894 665 c11 -8 27 -15 35 -15 13 1 12 4 -3 15 -11 8 -27 15 -35 15
-13 -1 -12 -4 3 -15z"/>
<path d="M1300 585 c52 -13 96 -24 98 -25 1 0 2 4 2 8 0 9 -136 42 -171 41
-13 0 19 -11 71 -24z"/>
<path d="M1118 573 c7 -3 16 -2 19 1 4 3 -2 6 -13 5 -11 0 -14 -3 -6 -6z"/>
<path d="M1158 563 c7 -3 16 -2 19 1 4 3 -2 6 -13 5 -11 0 -14 -3 -6 -6z"/>
<path d="M1008 543 c7 -3 16 -2 19 1 4 3 -2 6 -13 5 -11 0 -14 -3 -6 -6z"/>
<path d="M908 503 c7 -3 16 -2 19 1 4 3 -2 6 -13 5 -11 0 -14 -3 -6 -6z"/>
</g>
</svg>
